<?xml version="1.0" encoding="utf-8"?>
<!-- Generator: Adobe Illustrator 16.0.2, SVG Export Plug-In . SVG Version: 6.00 Build 0)  -->
<!DOCTYPE svg PUBLIC "-//W3C//DTD SVG 1.1//EN" "http://www.w3.org/Graphics/SVG/1.1/DTD/svg11.dtd">
<svg version="1.1" id="圖層_1" xmlns="http://www.w3.org/2000/svg" xmlns:xlink="http://www.w3.org/1999/xlink" x="0px" y="0px"
	 width="425.2px" height="141.73px" viewBox="0 0 425.2 141.73" enable-background="new 0 0 425.2 141.73" xml:space="preserve">
<g>
	<path fill="none" stroke="#000000" stroke-width="3" stroke-linecap="round" stroke-miterlimit="10" d="M22.158,44.625"/>
	<path fill="none" stroke="#000000" stroke-width="3" stroke-linecap="round" stroke-miterlimit="10" d="M66.287,10.61
		c3.013,2.644-9.63,45.809-6.509,48.009"/>
	<path fill="none" stroke="#000000" stroke-width="3" stroke-linecap="round" stroke-miterlimit="10" d="M88.982,14.38"/>
	<path fill="none" stroke="#000000" stroke-width="3" stroke-linecap="round" stroke-miterlimit="10" d="M77.402,35.361
		c-4.134-6.849-25.352-0.061-27.62-2.054"/>
	<path fill="none" stroke="#000000" stroke-width="3" stroke-linecap="round" stroke-miterlimit="10" d="M36.767,59.985
		c3.869,3.719,45.08-5.421,49.857-0.986"/>
	<path fill="none" stroke="#000000" stroke-width="3" stroke-linecap="round" stroke-miterlimit="10" d="M62.433,59.643
		c3.042,1.947-8.385,43-5.725,45.274"/>
	<path fill="none" stroke="#000000" stroke-width="3" stroke-linecap="round" stroke-miterlimit="10" d="M61.695,77.265
		c2.732-1.809,13.532,3.53,19.673,0"/>
	<path fill="none" stroke="#000000" stroke-width="3" stroke-linecap="round" stroke-miterlimit="10" d="M34.687,98.836
		c9.087-0.301,90.1,39.984,98.32,20.438"/>
	<path fill="none" stroke="#000000" stroke-width="3" stroke-linecap="round" stroke-miterlimit="10" d="M112.192,14.38
		c2.76,5.479-4.049,30.708-1.829,32.276"/>
	<path fill="none" stroke="#000000" stroke-width="3" stroke-linecap="round" stroke-miterlimit="10" d="M90.45,29.699
		c4.224-5.41,14.734,11.13,14.734,11.13"/>
	<path fill="none" stroke="#000000" stroke-width="3" stroke-linecap="round" stroke-miterlimit="10" d="M130.14,25.772
		c-2.716-1.824-13.813,18.982-13.813,18.982"/>
	<path fill="none" stroke="#000000" stroke-width="3" stroke-linecap="round" stroke-miterlimit="10" d="M86.46,109.361
		c11.625-3.199,13.848-62.862,11.991-57.977c-1.856,4.884,25.801-4.289,29.434,0c3.631,4.288,2.508,57.358,0,60.346
		c-2.508,2.991-7.536-11.912-11.992-13.2"/>
	<path fill="none" stroke="#000000" stroke-width="3" stroke-linecap="round" stroke-miterlimit="10" d="M98.813,65.82
		c2.051-0.066,15.213-2.57,22.161,2.578"/>
	<path fill="none" stroke="#000000" stroke-width="3" stroke-linecap="round" stroke-miterlimit="10" d="M96.498,84.575
		c0,0,26.731,0.183,31.388-6.267"/>
	<path fill="none" stroke="#000000" stroke-width="3" stroke-linecap="round" stroke-miterlimit="10" d="M40.335,82.561
		c5.38-2.065-17.236,26.627-18.178,30.064"/>
</g>
<g>
	<path fill="none" stroke="#000000" stroke-width="3" stroke-linecap="round" stroke-miterlimit="10" d="M183.471,46.336
		c2.249,7.895,2.895,38.144-17.88,41.129"/>
	<path fill="none" stroke="#000000" stroke-width="3" stroke-linecap="round" stroke-miterlimit="10" d="M206.598,32.302
		c2.608-3.551,15.422,17.625,15.422,17.625"/>
	<path fill="none" stroke="#000000" stroke-width="3" stroke-linecap="round" stroke-miterlimit="10" d="M250.936,57.817
		c4.172-4.099,24.29,15.37,24.29,15.37"/>
	<path fill="none" stroke="#000000" stroke-width="3" stroke-linecap="round" stroke-miterlimit="10" d="M197.026,50.621
		c6.779,53.288,44.314,62.906,58.174,63.387c13.858,0.48,1.484-22.983,0.537-32.452"/>
	<path fill="none" stroke="#000000" stroke-width="3" stroke-linecap="round" stroke-miterlimit="10" d="M245.688,26.009
		c0,0-2.725,82.33-58.149,93.221"/>
</g>
<g>
	<path fill="none" stroke="#000000" stroke-width="3" stroke-linecap="round" stroke-miterlimit="10" d="M312.857,20.397
		c0,0,20.756,18.408,16.959,23.238"/>
	<path fill="none" stroke="#000000" stroke-width="3" stroke-linecap="round" stroke-miterlimit="10" d="M306.738,47.838
		c0,0,20.293,20.731,16.104,22.749"/>
	<path fill="none" stroke="#000000" stroke-width="3" stroke-linecap="round" stroke-miterlimit="10" d="M309.184,122.242
		c-5.51-8.723,22.88-40.187,22.88-40.187"/>
	<path fill="none" stroke="#000000" stroke-width="3" stroke-linecap="round" stroke-miterlimit="10" d="M351.378,20.534
		c9.561-2.509-6.171,32.527-9.363,36.227"/>
	<path fill="none" stroke="#000000" stroke-width="3" stroke-linecap="round" stroke-miterlimit="10" d="M370.919,13.003
		c5.029-0.746-1.249,49.312,1.811,55.542"/>
	<path fill="none" stroke="#000000" stroke-width="3" stroke-linecap="round" stroke-miterlimit="10" d="M338.747,74.722
		c-3.589,3.478,63.296-14.417,68.253-6.993"/>
	<path fill="none" stroke="#000000" stroke-width="3" stroke-linecap="round" stroke-miterlimit="10" d="M352.415,121.923
		c-4.349,2.693,0.429-36.322,0-32.572c-0.429,3.752,34.668-4.986,38.221,0c3.552,4.986-3.553,31.114,0,32.572
		C394.188,123.38,356.766,119.229,352.415,121.923z"/>
	<path fill="none" stroke="#000000" stroke-width="3" stroke-linecap="round" stroke-miterlimit="10" d="M349.011,42.899
		c-1.747,3.715,37.257-10.098,41.938-6.947"/>
</g>
</svg>
